<mxfile host="Electron" agent="Mozilla/5.0 (Windows NT 10.0; Win64; x64) AppleWebKit/537.36 (KHTML, like Gecko) draw.io/24.7.17 Chrome/128.0.6613.36 Electron/32.0.1 Safari/537.36" version="24.7.17">
  <diagram name="Page-1" id="p8J13Eus_eL60CYvkrqD">
    <mxGraphModel dx="1851" dy="1376" grid="1" gridSize="10" guides="1" tooltips="1" connect="1" arrows="1" fold="1" page="1" pageScale="1" pageWidth="1000" pageHeight="1000" math="0" shadow="0">
      <root>
        <mxCell id="0" />
        <mxCell id="1" parent="0" />
        <mxCell id="OcFp6CyiSyLSBWcYTiPV-1" value="Region" style="points=[[0,0],[0.25,0],[0.5,0],[0.75,0],[1,0],[1,0.25],[1,0.5],[1,0.75],[1,1],[0.75,1],[0.5,1],[0.25,1],[0,1],[0,0.75],[0,0.5],[0,0.25]];outlineConnect=0;gradientColor=none;html=1;whiteSpace=wrap;fontSize=12;fontStyle=0;container=1;pointerEvents=0;collapsible=0;recursiveResize=0;shape=mxgraph.aws4.group;grIcon=mxgraph.aws4.group_region;strokeColor=#00A4A6;fillColor=none;verticalAlign=top;align=left;spacingLeft=30;fontColor=#147EBA;dashed=1;" vertex="1" parent="1">
          <mxGeometry x="40" y="40" width="640" height="320" as="geometry" />
        </mxCell>
        <mxCell id="OcFp6CyiSyLSBWcYTiPV-35" value="Availability Zone" style="rounded=1;arcSize=10;dashed=1;strokeColor=#F59D56;fillColor=none;gradientColor=none;dashPattern=8 4;strokeWidth=2;fontSize=14;fontStyle=1;horizontal=1;align=center;verticalAlign=bottom;spacing=7.874;fontColor=#FF9933;" vertex="1" parent="OcFp6CyiSyLSBWcYTiPV-1">
          <mxGeometry x="440" y="50" width="160" height="230" as="geometry" />
        </mxCell>
        <mxCell id="OcFp6CyiSyLSBWcYTiPV-36" value="eu-west-1a" style="text;html=1;align=center;verticalAlign=middle;whiteSpace=wrap;rounded=0;fontStyle=1;fontSize=14;" vertex="1" parent="OcFp6CyiSyLSBWcYTiPV-1">
          <mxGeometry x="50" y="60" width="140" height="30" as="geometry" />
        </mxCell>
        <mxCell id="OcFp6CyiSyLSBWcYTiPV-37" value="eu-west-1b" style="text;html=1;align=center;verticalAlign=middle;whiteSpace=wrap;rounded=0;fontStyle=1;fontSize=14;" vertex="1" parent="OcFp6CyiSyLSBWcYTiPV-1">
          <mxGeometry x="250" y="60" width="140" height="30" as="geometry" />
        </mxCell>
        <mxCell id="OcFp6CyiSyLSBWcYTiPV-38" value="eu-west-1c" style="text;html=1;align=center;verticalAlign=middle;whiteSpace=wrap;rounded=0;fontStyle=1;fontSize=14;" vertex="1" parent="OcFp6CyiSyLSBWcYTiPV-1">
          <mxGeometry x="450" y="60" width="140" height="30" as="geometry" />
        </mxCell>
        <mxCell id="OcFp6CyiSyLSBWcYTiPV-40" value="Private subnet" style="points=[[0,0],[0.25,0],[0.5,0],[0.75,0],[1,0],[1,0.25],[1,0.5],[1,0.75],[1,1],[0.75,1],[0.5,1],[0.25,1],[0,1],[0,0.75],[0,0.5],[0,0.25]];outlineConnect=0;gradientColor=none;html=1;whiteSpace=wrap;fontSize=12;fontStyle=0;container=1;pointerEvents=0;collapsible=0;recursiveResize=0;shape=mxgraph.aws4.group;grIcon=mxgraph.aws4.group_security_group;grStroke=0;strokeColor=#00A4A6;fillColor=#E6F6F7;verticalAlign=top;align=left;spacingLeft=30;fontColor=#147EBA;dashed=0;" vertex="1" parent="OcFp6CyiSyLSBWcYTiPV-1">
          <mxGeometry x="55" y="110" width="130" height="130" as="geometry" />
        </mxCell>
        <mxCell id="OcFp6CyiSyLSBWcYTiPV-34" value="Availability Zone" style="rounded=1;arcSize=10;dashed=1;strokeColor=#F59D56;fillColor=none;gradientColor=none;dashPattern=8 4;strokeWidth=2;fontSize=14;fontStyle=1;horizontal=1;align=center;verticalAlign=bottom;spacing=7.874;fontColor=#FF9933;" vertex="1" parent="OcFp6CyiSyLSBWcYTiPV-1">
          <mxGeometry x="240" y="50" width="160" height="230" as="geometry" />
        </mxCell>
        <mxCell id="OcFp6CyiSyLSBWcYTiPV-41" value="Private subnet" style="points=[[0,0],[0.25,0],[0.5,0],[0.75,0],[1,0],[1,0.25],[1,0.5],[1,0.75],[1,1],[0.75,1],[0.5,1],[0.25,1],[0,1],[0,0.75],[0,0.5],[0,0.25]];outlineConnect=0;gradientColor=none;html=1;whiteSpace=wrap;fontSize=12;fontStyle=0;container=1;pointerEvents=0;collapsible=0;recursiveResize=0;shape=mxgraph.aws4.group;grIcon=mxgraph.aws4.group_security_group;grStroke=0;strokeColor=#00A4A6;fillColor=#E6F6F7;verticalAlign=top;align=left;spacingLeft=30;fontColor=#147EBA;dashed=0;" vertex="1" parent="OcFp6CyiSyLSBWcYTiPV-1">
          <mxGeometry x="255" y="110" width="130" height="130" as="geometry" />
        </mxCell>
        <mxCell id="OcFp6CyiSyLSBWcYTiPV-44" value="172.31.1.0/24" style="text;html=1;align=center;verticalAlign=middle;whiteSpace=wrap;rounded=0;fontFamily=Verdana;fontSize=14;" vertex="1" parent="OcFp6CyiSyLSBWcYTiPV-41">
          <mxGeometry x="5" y="50" width="120" height="30" as="geometry" />
        </mxCell>
        <mxCell id="OcFp6CyiSyLSBWcYTiPV-42" value="Private subnet" style="points=[[0,0],[0.25,0],[0.5,0],[0.75,0],[1,0],[1,0.25],[1,0.5],[1,0.75],[1,1],[0.75,1],[0.5,1],[0.25,1],[0,1],[0,0.75],[0,0.5],[0,0.25]];outlineConnect=0;gradientColor=none;html=1;whiteSpace=wrap;fontSize=12;fontStyle=0;container=1;pointerEvents=0;collapsible=0;recursiveResize=0;shape=mxgraph.aws4.group;grIcon=mxgraph.aws4.group_security_group;grStroke=0;strokeColor=#00A4A6;fillColor=#E6F6F7;verticalAlign=top;align=left;spacingLeft=30;fontColor=#147EBA;dashed=0;" vertex="1" parent="OcFp6CyiSyLSBWcYTiPV-1">
          <mxGeometry x="455" y="110" width="130" height="130" as="geometry" />
        </mxCell>
        <mxCell id="OcFp6CyiSyLSBWcYTiPV-45" value="172.31.2.0/24" style="text;html=1;align=center;verticalAlign=middle;whiteSpace=wrap;rounded=0;fontFamily=Verdana;fontSize=14;" vertex="1" parent="OcFp6CyiSyLSBWcYTiPV-42">
          <mxGeometry x="5" y="50" width="120" height="30" as="geometry" />
        </mxCell>
        <mxCell id="OcFp6CyiSyLSBWcYTiPV-2" value="Availability Zone" style="rounded=1;arcSize=10;dashed=1;strokeColor=#F59D56;fillColor=none;gradientColor=none;dashPattern=8 4;strokeWidth=2;fontSize=14;fontStyle=1;horizontal=1;align=center;verticalAlign=bottom;spacing=7.874;fontColor=#FF9933;" vertex="1" parent="OcFp6CyiSyLSBWcYTiPV-1">
          <mxGeometry x="40" y="50" width="160" height="230" as="geometry" />
        </mxCell>
        <mxCell id="OcFp6CyiSyLSBWcYTiPV-39" value="172.31.0.0/24" style="text;html=1;align=center;verticalAlign=middle;whiteSpace=wrap;rounded=0;fontFamily=Verdana;fontSize=14;" vertex="1" parent="OcFp6CyiSyLSBWcYTiPV-1">
          <mxGeometry x="65" y="160" width="120" height="30" as="geometry" />
        </mxCell>
        <mxCell id="OcFp6CyiSyLSBWcYTiPV-43" value="172.31.0.0/16" style="text;html=1;align=center;verticalAlign=middle;whiteSpace=wrap;rounded=0;fontFamily=Verdana;fontSize=14;" vertex="1" parent="OcFp6CyiSyLSBWcYTiPV-1">
          <mxGeometry x="250" y="10" width="140" height="30" as="geometry" />
        </mxCell>
      </root>
    </mxGraphModel>
  </diagram>
</mxfile>
